<mxfile host="app.diagrams.net" agent="Mozilla/5.0 (Windows NT 10.0; Win64; x64) AppleWebKit/537.36 (KHTML, like Gecko) Chrome/134.0.0.0 Safari/537.36 Edg/134.0.0.0" version="26.1.1">
  <diagram name="Page-1" id="_PvQwDSXj1t5j44vyLk_">
    <mxGraphModel dx="1179" dy="673" grid="1" gridSize="10" guides="1" tooltips="1" connect="1" arrows="1" fold="1" page="1" pageScale="1" pageWidth="1169" pageHeight="827" math="0" shadow="0">
      <root>
        <mxCell id="0" />
        <mxCell id="1" parent="0" />
        <mxCell id="fQzZ19Rrnvx2yJ46SqV_-1" value="" style="swimlane;startSize=0;" parent="1" vertex="1">
          <mxGeometry x="320" y="110" width="490" height="280" as="geometry" />
        </mxCell>
        <mxCell id="fQzZ19Rrnvx2yJ46SqV_-3" value="view available space" style="ellipse;whiteSpace=wrap;html=1;" parent="fQzZ19Rrnvx2yJ46SqV_-1" vertex="1">
          <mxGeometry x="50" y="180" width="140" height="70" as="geometry" />
        </mxCell>
        <mxCell id="fQzZ19Rrnvx2yJ46SqV_-6" value="Generate space report" style="ellipse;whiteSpace=wrap;html=1;" parent="fQzZ19Rrnvx2yJ46SqV_-1" vertex="1">
          <mxGeometry x="290" y="180" width="140" height="70" as="geometry" />
        </mxCell>
        <mxCell id="fQzZ19Rrnvx2yJ46SqV_-7" value="Update available space" style="ellipse;whiteSpace=wrap;html=1;" parent="fQzZ19Rrnvx2yJ46SqV_-1" vertex="1">
          <mxGeometry x="50" y="30" width="140" height="70" as="geometry" />
        </mxCell>
        <mxCell id="fQzZ19Rrnvx2yJ46SqV_-8" value="&amp;lt;&amp;lt;extend&amp;gt;&amp;gt;" style="html=1;verticalAlign=bottom;endArrow=open;dashed=1;endSize=8;curved=0;rounded=0;entryX=1;entryY=0.5;entryDx=0;entryDy=0;exitX=0;exitY=0.5;exitDx=0;exitDy=0;" parent="fQzZ19Rrnvx2yJ46SqV_-1" source="fQzZ19Rrnvx2yJ46SqV_-6" target="fQzZ19Rrnvx2yJ46SqV_-3" edge="1">
          <mxGeometry relative="1" as="geometry">
            <mxPoint x="280" y="210" as="sourcePoint" />
            <mxPoint x="200" y="210" as="targetPoint" />
          </mxGeometry>
        </mxCell>
        <mxCell id="fQzZ19Rrnvx2yJ46SqV_-9" value="Space management subsystem" style="text;align=center;fontStyle=1;verticalAlign=middle;spacingLeft=3;spacingRight=3;strokeColor=none;rotatable=0;points=[[0,0.5],[1,0.5]];portConstraint=eastwest;html=1;" parent="1" vertex="1">
          <mxGeometry x="380" y="84" width="80" height="26" as="geometry" />
        </mxCell>
        <mxCell id="E98IqWkHCKGdlqkKTPe_-1" value="Employee" style="shape=umlActor;verticalLabelPosition=bottom;verticalAlign=top;html=1;" vertex="1" parent="1">
          <mxGeometry x="160" y="145" width="30" height="60" as="geometry" />
        </mxCell>
        <mxCell id="E98IqWkHCKGdlqkKTPe_-2" value="Admin" style="shape=umlActor;verticalLabelPosition=bottom;verticalAlign=top;html=1;" vertex="1" parent="1">
          <mxGeometry x="160" y="290" width="30" height="60" as="geometry" />
        </mxCell>
        <mxCell id="E98IqWkHCKGdlqkKTPe_-4" value="" style="endArrow=none;html=1;rounded=0;entryX=0;entryY=0.5;entryDx=0;entryDy=0;" edge="1" parent="1" target="fQzZ19Rrnvx2yJ46SqV_-7">
          <mxGeometry width="50" height="50" relative="1" as="geometry">
            <mxPoint x="200" y="175" as="sourcePoint" />
            <mxPoint x="290" y="150" as="targetPoint" />
          </mxGeometry>
        </mxCell>
        <mxCell id="E98IqWkHCKGdlqkKTPe_-5" value="" style="endArrow=none;html=1;rounded=0;entryX=0;entryY=0.5;entryDx=0;entryDy=0;" edge="1" parent="1" target="fQzZ19Rrnvx2yJ46SqV_-3">
          <mxGeometry width="50" height="50" relative="1" as="geometry">
            <mxPoint x="200" y="325" as="sourcePoint" />
            <mxPoint x="370" y="327.5" as="targetPoint" />
          </mxGeometry>
        </mxCell>
      </root>
    </mxGraphModel>
  </diagram>
</mxfile>
